<svg preserveAspectRatio="none" overflow="visible" style="display: block;" width="70" height="70" viewBox="0 0 70 70" fill="none" xmlns="http://www.w3.org/2000/svg">
<g id="SVG">
<path id="Vector" d="M35 56.7C46.598 56.7 56 48.5516 56 38.5C56 28.4484 46.598 20.3 35 20.3C23.402 20.3 14 28.4484 14 38.5C14 48.5516 23.402 56.7 35 56.7Z" fill="#B86200"/>
<path id="Vector_2" d="M21 22.4L26.6 12.6L30.1 25.2L21 22.4Z" fill="#B86200"/>
<path id="Vector_3" d="M49 22.4L43.4 12.6L39.9 25.2L49 22.4Z" fill="#B86200"/>
<path id="Vector_4" d="M35 47.6C38.866 47.6 42 45.0928 42 42C42 38.9072 38.866 36.4 35 36.4C31.134 36.4 28 38.9072 28 42C28 45.0928 31.134 47.6 35 47.6Z" fill="#824200"/>
</g>
</svg>
