<svg preserveAspectRatio="none" overflow="visible" style="display: block;" width="46" height="46" viewBox="0 0 46 46" fill="none" xmlns="http://www.w3.org/2000/svg">
<g id="SVG">
<path id="Vector" d="M13.8 19.32C16.8486 19.32 19.32 16.8486 19.32 13.8C19.32 10.7514 16.8486 8.28 13.8 8.28C10.7514 8.28 8.28 10.7514 8.28 13.8C8.28 16.8486 10.7514 19.32 13.8 19.32Z" fill="#B86200"/>
<path id="Vector_2" d="M32.2 19.32C35.2486 19.32 37.72 16.8486 37.72 13.8C37.72 10.7514 35.2486 8.28 32.2 8.28C29.1514 8.28 26.68 10.7514 26.68 13.8C26.68 16.8486 29.1514 19.32 32.2 19.32Z" fill="#B86200"/>
<path id="Vector_3" d="M23 40.94C31.6377 40.94 38.64 33.9377 38.64 25.3C38.64 16.6623 31.6377 9.66 23 9.66C14.3623 9.66 7.36 16.6623 7.36 25.3C7.36 33.9377 14.3623 40.94 23 40.94Z" fill="#E07D00"/>
<path id="Vector_4" d="M23 31.74C26.0486 31.74 28.52 29.8865 28.52 27.6C28.52 25.3135 26.0486 23.46 23 23.46C19.9514 23.46 17.48 25.3135 17.48 27.6C17.48 29.8865 19.9514 31.74 23 31.74Z" fill="#824200"/>
</g>
</svg>
