<svg preserveAspectRatio="none" overflow="visible" style="display: block;" width="46" height="46" viewBox="0 0 46 46" fill="none" xmlns="http://www.w3.org/2000/svg">
<g id="SVG">
<path id="Vector" d="M11.04 28.52C14.0886 28.52 16.56 24.401 16.56 19.32C16.56 14.239 14.0886 10.12 11.04 10.12C7.99139 10.12 5.52 14.239 5.52 19.32C5.52 24.401 7.99139 28.52 11.04 28.52Z" fill="#B86200"/>
<path id="Vector_2" d="M34.96 28.52C38.0086 28.52 40.48 24.401 40.48 19.32C40.48 14.239 38.0086 10.12 34.96 10.12C31.9114 10.12 29.44 14.239 29.44 19.32C29.44 24.401 31.9114 28.52 34.96 28.52Z" fill="#B86200"/>
<path id="Vector_3" d="M23 40.02C31.1296 40.02 37.72 33.4296 37.72 25.3C37.72 17.1704 31.1296 10.58 23 10.58C14.8704 10.58 8.28 17.1704 8.28 25.3C8.28 33.4296 14.8704 40.02 23 40.02Z" fill="#E07D00"/>
<path id="Vector_4" d="M23 32.2C26.5567 32.2 29.44 30.1405 29.44 27.6C29.44 25.0595 26.5567 23 23 23C19.4433 23 16.56 25.0595 16.56 27.6C16.56 30.1405 19.4433 32.2 23 32.2Z" fill="#FFEEC2"/>
<path id="Vector_5" d="M23 28.52C24.0162 28.52 24.84 27.6962 24.84 26.68C24.84 25.6638 24.0162 24.84 23 24.84C21.9838 24.84 21.16 25.6638 21.16 26.68C21.16 27.6962 21.9838 28.52 23 28.52Z" fill="#4D2500"/>
</g>
</svg>
